<svg xmlns="http://www.w3.org/2000/svg" width="428" height="312" viewBox="0 0 428 312">
  <g id="Grupo_9616" data-name="Grupo 9616" transform="translate(-747 -3095)">
    <g id="Trazado_18760" data-name="Trazado 18760" transform="translate(859 3204)" fill="#fddbc9">
      <path d="M 101.5 202.5 C 94.64694976806641 202.5 87.79834747314453 201.8096313476562 81.14444732666016 200.4480285644531 C 74.65989685058594 199.12109375 68.28150177001953 197.1411285400391 62.1864013671875 194.5631256103516 C 56.20185089111328 192.0318756103516 50.4296989440918 188.8988494873047 45.03030014038086 185.2510681152344 C 39.68204879760742 181.6378784179688 34.65280151367188 177.4883728027344 30.08222579956055 172.9177703857422 C 25.51162528991699 168.3471984863281 21.36212539672852 163.3179473876953 17.74892425537109 157.9696960449219 C 14.101149559021 152.5702972412109 10.96812534332275 146.7981567382812 8.436875343322754 140.8135986328125 C 5.858874797821045 134.718505859375 3.878900051116943 128.3401031494141 2.551975011825562 121.8555526733398 C 1.190374970436096 115.2016525268555 0.5 108.3530502319336 0.5 101.5 C 0.5 94.64694976806641 1.190374970436096 87.79834747314453 2.551975011825562 81.14444732666016 C 3.878900051116943 74.65989685058594 5.858874797821045 68.28150177001953 8.436875343322754 62.1864013671875 C 10.96812534332275 56.20185089111328 14.101149559021 50.4296989440918 17.74892425537109 45.03030014038086 C 21.36212539672852 39.68204879760742 25.51162528991699 34.65280151367188 30.08222579956055 30.08222579956055 C 34.65280151367188 25.51162528991699 39.68204879760742 21.36212539672852 45.03030014038086 17.74892425537109 C 50.4296989440918 14.101149559021 56.20185089111328 10.96812534332275 62.1864013671875 8.436875343322754 C 68.28150177001953 5.858874797821045 74.65989685058594 3.878900051116943 81.14444732666016 2.551975011825562 C 87.79834747314453 1.190374970436096 94.64694976806641 0.5 101.5 0.5 C 108.3530502319336 0.5 115.2016525268555 1.190374970436096 121.8555526733398 2.551975011825562 C 128.3401031494141 3.878900051116943 134.718505859375 5.858874797821045 140.8135986328125 8.436875343322754 C 146.7981567382812 10.96812534332275 152.5702972412109 14.101149559021 157.9696960449219 17.74892425537109 C 163.3179473876953 21.36212539672852 168.3471984863281 25.51162528991699 172.9177703857422 30.08222579956055 C 177.4883728027344 34.65280151367188 181.6378784179688 39.68204879760742 185.2510681152344 45.03030014038086 C 188.8988494873047 50.4296989440918 192.0318756103516 56.20185089111328 194.5631256103516 62.1864013671875 C 197.1411285400391 68.28150177001953 199.12109375 74.65989685058594 200.4480285644531 81.14444732666016 C 201.8096313476562 87.79834747314453 202.5 94.64694976806641 202.5 101.5 C 202.5 108.3530502319336 201.8096313476562 115.2016525268555 200.4480285644531 121.8555526733398 C 199.12109375 128.3401031494141 197.1411285400391 134.718505859375 194.5631256103516 140.8135986328125 C 192.0318756103516 146.7981567382812 188.8988494873047 152.5702972412109 185.2510681152344 157.9696960449219 C 181.6378784179688 163.3179473876953 177.4883728027344 168.3471984863281 172.9177703857422 172.9177703857422 C 168.3471984863281 177.4883728027344 163.3179473876953 181.6378784179688 157.9696960449219 185.2510681152344 C 152.5702972412109 188.8988494873047 146.7981567382812 192.0318756103516 140.8135986328125 194.5631256103516 C 134.718505859375 197.1411285400391 128.3401031494141 199.12109375 121.8555526733398 200.4480285644531 C 115.2016525268555 201.8096313476562 108.3530502319336 202.5 101.5 202.5 Z" stroke="none"/>
      <path d="M 101.5 1 C 94.68054962158203 1 87.86568450927734 1.686981201171875 81.24468231201172 3.04180908203125 C 74.79248046875 4.362136840820312 68.44586181640625 6.332229614257812 62.38117980957031 8.897369384765625 C 56.42634582519531 11.41604614257812 50.68284606933594 14.53352355957031 45.3101806640625 18.16323852539062 C 39.98834228515625 21.75860595703125 34.98384094238281 25.88768005371094 30.43576049804688 30.43576049804688 C 25.88768005371094 34.98384094238281 21.75860595703125 39.98834228515625 18.16323852539062 45.3101806640625 C 14.53352355957031 50.68284606933594 11.41604614257812 56.42634582519531 8.897369384765625 62.38117980957031 C 6.332229614257812 68.44586181640625 4.362136840820312 74.79248046875 3.04180908203125 81.24468231201172 C 1.686981201171875 87.86568450927734 1 94.68054962158203 1 101.5 C 1 108.319450378418 1.686981201171875 115.1343154907227 3.04180908203125 121.7553176879883 C 4.362136840820312 128.20751953125 6.332229614257812 134.5541381835938 8.897369384765625 140.6188201904297 C 11.41604614257812 146.5736541748047 14.53352355957031 152.3171539306641 18.16323852539062 157.6898193359375 C 21.75860595703125 163.0116577148438 25.88768005371094 168.0161590576172 30.43576049804688 172.5642395019531 C 34.98384094238281 177.1123199462891 39.98834228515625 181.2413940429688 45.3101806640625 184.8367614746094 C 50.68284606933594 188.4664764404297 56.42634582519531 191.5839538574219 62.38117980957031 194.1026306152344 C 68.44586181640625 196.6677703857422 74.79248046875 198.6378631591797 81.24468231201172 199.9581909179688 C 87.86568450927734 201.3130187988281 94.68054962158203 202 101.5 202 C 108.319450378418 202 115.1343154907227 201.3130187988281 121.7553176879883 199.9581909179688 C 128.20751953125 198.6378631591797 134.5541381835938 196.6677703857422 140.6188201904297 194.1026306152344 C 146.5736541748047 191.5839538574219 152.3171539306641 188.4664764404297 157.6898193359375 184.8367614746094 C 163.0116577148438 181.2413940429688 168.0161590576172 177.1123199462891 172.5642395019531 172.5642395019531 C 177.1123199462891 168.0161590576172 181.2413940429688 163.0116577148438 184.8367614746094 157.6898193359375 C 188.4664764404297 152.3171539306641 191.5839538574219 146.5736541748047 194.1026306152344 140.6188201904297 C 196.6677703857422 134.5541381835938 198.6378631591797 128.20751953125 199.9581909179688 121.7553176879883 C 201.3130187988281 115.1343154907227 202 108.319450378418 202 101.5 C 202 94.68054962158203 201.3130187988281 87.86568450927734 199.9581909179688 81.24468231201172 C 198.6378631591797 74.79248046875 196.6677703857422 68.44586181640625 194.1026306152344 62.38117980957031 C 191.5839538574219 56.42634582519531 188.4664764404297 50.68284606933594 184.8367614746094 45.3101806640625 C 181.2413940429688 39.98834228515625 177.1123199462891 34.98384094238281 172.5642395019531 30.43576049804688 C 168.0161590576172 25.88768005371094 163.0116577148438 21.75860595703125 157.6898193359375 18.16323852539062 C 152.3171539306641 14.53352355957031 146.5736541748047 11.41604614257812 140.6188201904297 8.897369384765625 C 134.5541381835938 6.332229614257812 128.20751953125 4.362136840820312 121.7553176879883 3.04180908203125 C 115.1343154907227 1.686981201171875 108.319450378418 1 101.5 1 M 101.5 0 C 157.5569000244141 0 203 45.44309997558594 203 101.5 C 203 157.5569000244141 157.5569000244141 203 101.5 203 C 45.44309997558594 203 0 157.5569000244141 0 101.5 C 0 45.44309997558594 45.44309997558594 0 101.5 0 Z" stroke="none" fill="#fa803f"/>
    </g>
    <path id="Trazado_18762" data-name="Trazado 18762" d="M-55.042-12.7h2.628V0h-3.05l-5.625-9.079V0h-2.628V-12.7H-60.7l5.66,9.026Zm14.027,8.051-.026.606h-6.7a2.339,2.339,0,0,0,.721,1.652,2.3,2.3,0,0,0,1.591.571,2.221,2.221,0,0,0,1.191-.312,1.918,1.918,0,0,0,.76-.91l2.32.343A3.945,3.945,0,0,1-42.737-.58a4.7,4.7,0,0,1-2.672.756,4.891,4.891,0,0,1-3.52-1.244,4.538,4.538,0,0,1-1.305-3.45,4.565,4.565,0,0,1,1.31-3.45,4.746,4.746,0,0,1,3.437-1.261,4.536,4.536,0,0,1,3.243,1.151A4.517,4.517,0,0,1-41.014-4.649ZM-45.47-7.436a2,2,0,0,0-2.2,1.74h4.148a1.9,1.9,0,0,0-.624-1.292A1.978,1.978,0,0,0-45.47-7.436ZM-35,.167a4.827,4.827,0,0,1-3.489-1.3,4.493,4.493,0,0,1-1.354-3.393A4.483,4.483,0,0,1-38.5-7.919,4.842,4.842,0,0,1-35-9.211a4.814,4.814,0,0,1,2.927.87,3.885,3.885,0,0,1,1.512,2.452l-2.338.255a2,2,0,0,0-.756-1.187,2.3,2.3,0,0,0-1.371-.4,2.072,2.072,0,0,0-1.652.738,2.894,2.894,0,0,0-.633,1.951,2.9,2.9,0,0,0,.633,1.947,2.067,2.067,0,0,0,1.652.743,2.278,2.278,0,0,0,1.367-.4,2.05,2.05,0,0,0,.76-1.187l2.338.255A3.9,3.9,0,0,1-32.089-.712,4.8,4.8,0,0,1-35,.167Zm14.739-4.816-.026.606h-6.7a2.339,2.339,0,0,0,.721,1.652,2.3,2.3,0,0,0,1.591.571,2.221,2.221,0,0,0,1.191-.312,1.918,1.918,0,0,0,.76-.91l2.32.343A3.945,3.945,0,0,1-21.986-.58a4.7,4.7,0,0,1-2.672.756,4.891,4.891,0,0,1-3.52-1.244,4.538,4.538,0,0,1-1.305-3.45,4.565,4.565,0,0,1,1.31-3.45,4.746,4.746,0,0,1,3.437-1.261,4.536,4.536,0,0,1,3.243,1.151A4.517,4.517,0,0,1-20.263-4.649Zm-4.456-2.786a2,2,0,0,0-2.2,1.74h4.148a1.9,1.9,0,0,0-.624-1.292A1.978,1.978,0,0,0-24.719-7.436ZM-15.157.176a5.049,5.049,0,0,1-2.637-.633,2.675,2.675,0,0,1-1.292-1.881l2.118-.6a1.7,1.7,0,0,0,1.811,1.345,1.87,1.87,0,0,0,.923-.207.719.719,0,0,0,.36-.7.739.739,0,0,0-.149-.466,1.183,1.183,0,0,0-.461-.334,5.749,5.749,0,0,0-.615-.237q-.3-.1-.8-.233t-.835-.259a5.593,5.593,0,0,1-.8-.338,3.393,3.393,0,0,1-.659-.466,1.878,1.878,0,0,1-.492-.708,2.552,2.552,0,0,1-.171-.967,2.308,2.308,0,0,1,.98-2.021,4.379,4.379,0,0,1,2.562-.686,4.489,4.489,0,0,1,2.364.58A2.625,2.625,0,0,1-11.738-6.82l-1.96.439a1.535,1.535,0,0,0-1.608-1.143,1.761,1.761,0,0,0-.888.2.649.649,0,0,0-.352.6.685.685,0,0,0,.053.272.539.539,0,0,0,.185.22,2.692,2.692,0,0,0,.255.167,1.923,1.923,0,0,0,.36.145q.237.075.4.114l.461.119.47.123q.483.132.848.264a4.967,4.967,0,0,1,.778.369,2.792,2.792,0,0,1,.681.532,2.372,2.372,0,0,1,.444.747,2.759,2.759,0,0,1,.176,1.006,2.718,2.718,0,0,1-.3,1.31,2.276,2.276,0,0,1-.831.883,4.043,4.043,0,0,1-1.173.475A6.087,6.087,0,0,1-15.157.176Zm6.829-10.564a1.421,1.421,0,0,1-1.037-.426A1.4,1.4,0,0,1-9.8-11.848a1.382,1.382,0,0,1,.435-1.024A1.425,1.425,0,0,1-8.328-13.3a1.4,1.4,0,0,1,1.02.426,1.389,1.389,0,0,1,.431,1.024,1.4,1.4,0,0,1-.431,1.033A1.4,1.4,0,0,1-8.328-10.389ZM-9.62,0V-9.035h2.549V0ZM1.956-13.5H4.487V0h-2.4L2.026-1.178A2.58,2.58,0,0,1,.879-.154,3.861,3.861,0,0,1-.813.211,4.394,4.394,0,0,1-2.5-.114a4.189,4.189,0,0,1-1.384-.918,4.187,4.187,0,0,1-.936-1.49A5.5,5.5,0,0,1-5.164-4.5a5.137,5.137,0,0,1,.6-2.518A4.1,4.1,0,0,1-2.988-8.657,4.345,4.345,0,0,1-.813-9.211a3.957,3.957,0,0,1,1.639.33,2.559,2.559,0,0,1,1.129.936ZM-.233-1.89A2.253,2.253,0,0,0,1.477-2.61,2.638,2.638,0,0,0,2.158-4.5a2.644,2.644,0,0,0-.686-1.894A2.251,2.251,0,0,0-.233-7.119a2.277,2.277,0,0,0-1.718.712A2.644,2.644,0,0,0-2.632-4.5a2.631,2.631,0,0,0,.681,1.9A2.277,2.277,0,0,0-.233-1.89Zm14.748-.562a8.453,8.453,0,0,0,.22,2.206V0H12.371l-.2-.984a2.938,2.938,0,0,1-1.266.87,4.664,4.664,0,0,1-1.635.29A4.3,4.3,0,0,1,8.424.1a2.868,2.868,0,0,1-.76-.268,2.307,2.307,0,0,1-.628-.47,2.062,2.062,0,0,1-.422-.716,2.853,2.853,0,0,1-.158-.98,2.718,2.718,0,0,1,.167-.98,2.3,2.3,0,0,1,.439-.734,2.666,2.666,0,0,1,.712-.536,5.447,5.447,0,0,1,.9-.387,10.712,10.712,0,0,1,1.072-.281l1.485-.334a1.638,1.638,0,0,0,.672-.286.57.57,0,0,0,.2-.453.932.932,0,0,0-.444-.87,2.072,2.072,0,0,0-1.077-.264,1.549,1.549,0,0,0-1.767,1.38l-2.241-.4a3.034,3.034,0,0,1,1.31-2.061,5.2,5.2,0,0,1,2.839-.664q3.8,0,3.8,3.261Zm-4.456.914a2.036,2.036,0,0,0,1.564-.655,2.759,2.759,0,0,0,.606-1.938l-2.145.606a2.534,2.534,0,0,0-.9.369.758.758,0,0,0-.312.65.842.842,0,0,0,.334.716A1.382,1.382,0,0,0,10.059-1.538ZM23.181-13.5h2.531V0h-2.4l-.062-1.178A2.58,2.58,0,0,1,22.1-.154a3.861,3.861,0,0,1-1.692.365,4.394,4.394,0,0,1-1.687-.325,4.189,4.189,0,0,1-1.384-.918,4.187,4.187,0,0,1-.936-1.49A5.5,5.5,0,0,1,16.062-4.5a5.137,5.137,0,0,1,.6-2.518,4.1,4.1,0,0,1,1.578-1.639,4.345,4.345,0,0,1,2.175-.554,3.957,3.957,0,0,1,1.639.33,2.559,2.559,0,0,1,1.129.936ZM20.993-1.89A2.253,2.253,0,0,0,22.7-2.61a2.638,2.638,0,0,0,.681-1.89A2.644,2.644,0,0,0,22.7-6.394a2.251,2.251,0,0,0-1.705-.725,2.277,2.277,0,0,0-1.718.712A2.644,2.644,0,0,0,18.593-4.5a2.631,2.631,0,0,0,.681,1.9A2.277,2.277,0,0,0,20.993-1.89Zm15.838-2.76-.026.606h-6.7a2.339,2.339,0,0,0,.721,1.652,2.3,2.3,0,0,0,1.591.571,2.221,2.221,0,0,0,1.191-.312,1.918,1.918,0,0,0,.76-.91l2.32.343A3.945,3.945,0,0,1,35.108-.58a4.7,4.7,0,0,1-2.672.756,4.891,4.891,0,0,1-3.52-1.244,4.538,4.538,0,0,1-1.305-3.45,4.565,4.565,0,0,1,1.31-3.45,4.746,4.746,0,0,1,3.437-1.261A4.536,4.536,0,0,1,35.6-8.077,4.517,4.517,0,0,1,36.831-4.649ZM32.375-7.436a2,2,0,0,0-2.2,1.74h4.148A1.9,1.9,0,0,0,33.7-6.987,1.978,1.978,0,0,0,32.375-7.436ZM41.937.176A5.049,5.049,0,0,1,39.3-.457a2.675,2.675,0,0,1-1.292-1.881l2.118-.6a1.7,1.7,0,0,0,1.811,1.345A1.87,1.87,0,0,0,42.86-1.8a.719.719,0,0,0,.36-.7.739.739,0,0,0-.149-.466,1.183,1.183,0,0,0-.461-.334,5.749,5.749,0,0,0-.615-.237q-.3-.1-.8-.233t-.835-.259a5.593,5.593,0,0,1-.8-.338A3.393,3.393,0,0,1,38.9-4.83a1.878,1.878,0,0,1-.492-.708,2.552,2.552,0,0,1-.171-.967,2.308,2.308,0,0,1,.98-2.021,4.379,4.379,0,0,1,2.562-.686,4.489,4.489,0,0,1,2.364.58A2.625,2.625,0,0,1,45.356-6.82l-1.96.439a1.535,1.535,0,0,0-1.608-1.143,1.761,1.761,0,0,0-.888.2.649.649,0,0,0-.352.6.685.685,0,0,0,.053.272.539.539,0,0,0,.185.22,2.692,2.692,0,0,0,.255.167,1.923,1.923,0,0,0,.36.145q.237.075.4.114l.461.119.47.123q.483.132.848.264a4.967,4.967,0,0,1,.778.369,2.792,2.792,0,0,1,.681.532,2.372,2.372,0,0,1,.444.747,2.759,2.759,0,0,1,.176,1.006,2.718,2.718,0,0,1-.3,1.31,2.276,2.276,0,0,1-.831.883,4.043,4.043,0,0,1-1.173.475A6.087,6.087,0,0,1,41.937.176ZM58.065-9.035h2.593L55.085,4.254H52.519L54.584-.369,50.867-9.035h2.76L55.78-3.094ZM-47.153,17.3a3.822,3.822,0,0,1,2.927,1.182A4.112,4.112,0,0,1-43.119,21.4a4.011,4.011,0,0,1-1.1,2.9,3.891,3.891,0,0,1-2.936,1.138H-49.8V30h-2.637V17.3Zm-.439,5.941a1.938,1.938,0,0,0,1.45-.5,1.888,1.888,0,0,0,.483-1.375,1.873,1.873,0,0,0-.488-1.358,1.92,1.92,0,0,0-1.446-.505H-49.8v3.735Zm8.78-.844a2.933,2.933,0,0,1,1.187-1.085,3.62,3.62,0,0,1,1.767-.453v2.259a3.423,3.423,0,0,0-2.162.545,2.379,2.379,0,0,0-.668,1.934V30h-2.549V20.965h2.426Zm12.885,2.953-.026.606h-6.7a2.339,2.339,0,0,0,.721,1.652,2.3,2.3,0,0,0,1.591.571,2.221,2.221,0,0,0,1.191-.312,1.918,1.918,0,0,0,.76-.91l2.32.343A3.945,3.945,0,0,1-27.65,29.42a4.7,4.7,0,0,1-2.672.756,4.891,4.891,0,0,1-3.52-1.244,4.538,4.538,0,0,1-1.305-3.45,4.565,4.565,0,0,1,1.31-3.45A4.746,4.746,0,0,1-30.4,20.771a4.536,4.536,0,0,1,3.243,1.151A4.517,4.517,0,0,1-25.928,25.351Zm-4.456-2.786a2,2,0,0,0-2.2,1.74h4.148a1.9,1.9,0,0,0-.624-1.292A1.978,1.978,0,0,0-30.384,22.564Zm11.479-4.043h-.053q-.246,0-.374,0t-.36.031a1.459,1.459,0,0,0-.365.079,1.859,1.859,0,0,0-.3.163.809.809,0,0,0-.264.264,1.593,1.593,0,0,0-.158.391,2.042,2.042,0,0,0-.066.545v.967h1.942v1.942h-1.942V30H-23.37V22.907h-1.767V20.965h1.767v-.976a5.284,5.284,0,0,1,.114-1.151,3.5,3.5,0,0,1,.308-.875,2.047,2.047,0,0,1,.514-.628,3.034,3.034,0,0,1,.668-.422,3.817,3.817,0,0,1,.831-.255,7.285,7.285,0,0,1,.954-.127q.47-.031,1.077-.031Zm9.9,6.829-.026.606h-6.7a2.339,2.339,0,0,0,.721,1.652,2.3,2.3,0,0,0,1.591.571,2.221,2.221,0,0,0,1.191-.312,1.918,1.918,0,0,0,.76-.91l2.32.343a3.945,3.945,0,0,1-1.582,2.118,4.7,4.7,0,0,1-2.672.756,4.891,4.891,0,0,1-3.52-1.244,4.538,4.538,0,0,1-1.305-3.45,4.565,4.565,0,0,1,1.31-3.45,4.746,4.746,0,0,1,3.437-1.261,4.536,4.536,0,0,1,3.243,1.151A4.517,4.517,0,0,1-9.009,25.351Zm-4.456-2.786a2,2,0,0,0-2.2,1.74h4.148a1.9,1.9,0,0,0-.624-1.292A1.978,1.978,0,0,0-13.465,22.564Zm8.807-.167a2.933,2.933,0,0,1,1.187-1.085,3.62,3.62,0,0,1,1.767-.453v2.259a3.423,3.423,0,0,0-2.162.545A2.379,2.379,0,0,0-4.535,25.6V30H-7.084V20.965h2.426ZM8.227,25.351l-.026.606H1.5a2.339,2.339,0,0,0,.721,1.652,2.3,2.3,0,0,0,1.591.571,2.221,2.221,0,0,0,1.191-.312,1.918,1.918,0,0,0,.76-.91l2.32.343A3.945,3.945,0,0,1,6.5,29.42a4.7,4.7,0,0,1-2.672.756,4.891,4.891,0,0,1-3.52-1.244,4.538,4.538,0,0,1-1.305-3.45,4.565,4.565,0,0,1,1.31-3.45,4.746,4.746,0,0,1,3.437-1.261A4.536,4.536,0,0,1,7,21.923,4.517,4.517,0,0,1,8.227,25.351ZM3.771,22.564a2,2,0,0,0-2.2,1.74H5.722A1.9,1.9,0,0,0,5.1,23.013,1.978,1.978,0,0,0,3.771,22.564Zm11.716-1.775a3.522,3.522,0,0,1,2.5.813,3.014,3.014,0,0,1,.87,2.316V30h-2.54V24.463a1.574,1.574,0,0,0-.453-1.248,1.705,1.705,0,0,0-1.165-.4,2.379,2.379,0,0,0-.756.114,1.942,1.942,0,0,0-.633.356,1.573,1.573,0,0,0-.453.681,3.15,3.15,0,0,0-.171,1.046V30H10.151V20.965h2.531v1A3.481,3.481,0,0,1,15.486,20.789Zm9.905,9.378a4.827,4.827,0,0,1-3.489-1.3,4.493,4.493,0,0,1-1.354-3.393A4.483,4.483,0,0,1,21.9,22.081a4.842,4.842,0,0,1,3.494-1.292,4.814,4.814,0,0,1,2.927.87,3.885,3.885,0,0,1,1.512,2.452l-2.338.255a2,2,0,0,0-.756-1.187,2.3,2.3,0,0,0-1.371-.4,2.072,2.072,0,0,0-1.652.738,2.894,2.894,0,0,0-.633,1.951,2.9,2.9,0,0,0,.633,1.947,2.067,2.067,0,0,0,1.652.743,2.278,2.278,0,0,0,1.367-.4,2.05,2.05,0,0,0,.76-1.187l2.338.255a3.9,3.9,0,0,1-1.525,2.452A4.8,4.8,0,0,1,25.392,30.167Zm7.532-10.556a1.421,1.421,0,0,1-1.037-.426,1.4,1.4,0,0,1-.431-1.033,1.382,1.382,0,0,1,.435-1.024,1.425,1.425,0,0,1,1.033-.426,1.455,1.455,0,0,1,0,2.909ZM31.632,30V20.965h2.549V30Zm12.577-2.452a8.453,8.453,0,0,0,.22,2.206V30H42.064l-.2-.984a2.938,2.938,0,0,1-1.266.87,4.664,4.664,0,0,1-1.635.29,4.3,4.3,0,0,1-.844-.079,2.868,2.868,0,0,1-.76-.268,2.307,2.307,0,0,1-.628-.47,2.062,2.062,0,0,1-.422-.716,2.853,2.853,0,0,1-.158-.98,2.718,2.718,0,0,1,.167-.98,2.3,2.3,0,0,1,.439-.734,2.666,2.666,0,0,1,.712-.536,5.447,5.447,0,0,1,.9-.387,10.712,10.712,0,0,1,1.072-.281l1.485-.334a1.638,1.638,0,0,0,.672-.286.57.57,0,0,0,.2-.453.932.932,0,0,0-.444-.87,2.072,2.072,0,0,0-1.077-.264,1.549,1.549,0,0,0-1.767,1.38l-2.241-.4a3.034,3.034,0,0,1,1.31-2.061,5.2,5.2,0,0,1,2.839-.664q3.8,0,3.8,3.261Zm-4.456.914a2.036,2.036,0,0,0,1.564-.655,2.759,2.759,0,0,0,.606-1.938l-2.145.606a2.534,2.534,0,0,0-.9.369.758.758,0,0,0-.312.65.842.842,0,0,0,.334.716A1.382,1.382,0,0,0,39.753,28.462Zm10.1,1.714a5.049,5.049,0,0,1-2.637-.633,2.675,2.675,0,0,1-1.292-1.881l2.118-.6a1.7,1.7,0,0,0,1.811,1.345,1.87,1.87,0,0,0,.923-.207.719.719,0,0,0,.36-.7.739.739,0,0,0-.149-.466,1.183,1.183,0,0,0-.461-.334,5.749,5.749,0,0,0-.615-.237q-.3-.1-.8-.233t-.835-.259a5.593,5.593,0,0,1-.8-.338,3.393,3.393,0,0,1-.659-.466,1.878,1.878,0,0,1-.492-.708,2.552,2.552,0,0,1-.171-.967,2.308,2.308,0,0,1,.98-2.021,4.379,4.379,0,0,1,2.562-.686,4.489,4.489,0,0,1,2.364.58,2.625,2.625,0,0,1,1.213,1.811l-1.96.439A1.535,1.535,0,0,0,49.7,22.477a1.761,1.761,0,0,0-.888.2.649.649,0,0,0-.352.6.685.685,0,0,0,.053.272.539.539,0,0,0,.185.22,2.692,2.692,0,0,0,.255.167,1.923,1.923,0,0,0,.36.145q.237.075.4.114l.461.119.47.123q.483.132.848.264a4.967,4.967,0,0,1,.778.369,2.792,2.792,0,0,1,.681.532,2.372,2.372,0,0,1,.444.747,2.759,2.759,0,0,1,.176,1.006,2.718,2.718,0,0,1-.3,1.31,2.276,2.276,0,0,1-.831.883,4.043,4.043,0,0,1-1.173.475A6.087,6.087,0,0,1,49.852,30.176Zm-77.669,27.5h3.981V60h-6.618V47.3h2.637Zm9.87,2.5a5.681,5.681,0,0,1-2.558-.554A4.138,4.138,0,0,1-22.258,58a4.846,4.846,0,0,1-.637-2.522,4.42,4.42,0,0,1,1.371-3.428,5.086,5.086,0,0,1,3.577-1.257,5.1,5.1,0,0,1,3.586,1.257,4.42,4.42,0,0,1,1.371,3.428,4.444,4.444,0,0,1-1.371,3.441A5.088,5.088,0,0,1-17.947,60.176Zm-.026-2.013a2.319,2.319,0,0,0,1.789-.738,2.764,2.764,0,0,0,.681-1.951,2.764,2.764,0,0,0-.681-1.951,2.319,2.319,0,0,0-1.789-.738,2.234,2.234,0,0,0-1.736.743,2.789,2.789,0,0,0-.672,1.947,2.789,2.789,0,0,0,.672,1.947A2.234,2.234,0,0,0-17.974,58.163Zm10.951,2a4.827,4.827,0,0,1-3.489-1.3,4.493,4.493,0,0,1-1.354-3.393,4.483,4.483,0,0,1,1.349-3.393,4.842,4.842,0,0,1,3.494-1.292,4.814,4.814,0,0,1,2.927.87,3.885,3.885,0,0,1,1.512,2.452l-2.338.255a2,2,0,0,0-.756-1.187,2.3,2.3,0,0,0-1.371-.4,2.072,2.072,0,0,0-1.652.738,2.894,2.894,0,0,0-.633,1.951A2.9,2.9,0,0,0-8.7,57.42a2.067,2.067,0,0,0,1.652.743,2.278,2.278,0,0,0,1.367-.4,2.05,2.05,0,0,0,.76-1.187l2.338.255a3.9,3.9,0,0,1-1.525,2.452A4.8,4.8,0,0,1-7.022,60.167ZM6.627,57.548a8.453,8.453,0,0,0,.22,2.206V60H4.482l-.2-.984a2.938,2.938,0,0,1-1.266.87,4.664,4.664,0,0,1-1.635.29A4.3,4.3,0,0,1,.536,60.1a2.868,2.868,0,0,1-.76-.268,2.307,2.307,0,0,1-.628-.47,2.062,2.062,0,0,1-.422-.716,2.853,2.853,0,0,1-.158-.98,2.718,2.718,0,0,1,.167-.98,2.3,2.3,0,0,1,.439-.734,2.666,2.666,0,0,1,.712-.536,5.447,5.447,0,0,1,.9-.387,10.712,10.712,0,0,1,1.072-.281L3.34,54.41a1.638,1.638,0,0,0,.672-.286.57.57,0,0,0,.2-.453.932.932,0,0,0-.444-.87,2.072,2.072,0,0,0-1.077-.264,1.549,1.549,0,0,0-1.767,1.38l-2.241-.4a3.034,3.034,0,0,1,1.31-2.061,5.2,5.2,0,0,1,2.839-.664q3.8,0,3.8,3.261Zm-4.456.914a2.036,2.036,0,0,0,1.564-.655,2.759,2.759,0,0,0,.606-1.938L2.2,56.476a2.534,2.534,0,0,0-.9.369.758.758,0,0,0-.312.65.842.842,0,0,0,.334.716A1.382,1.382,0,0,0,2.171,58.462ZM9.088,60V46.5h2.558V60Zm13.676-4.649-.026.606h-6.7a2.339,2.339,0,0,0,.721,1.652,2.3,2.3,0,0,0,1.591.571,2.221,2.221,0,0,0,1.191-.312,1.918,1.918,0,0,0,.76-.91l2.32.343a3.945,3.945,0,0,1-1.582,2.118,4.7,4.7,0,0,1-2.672.756,4.891,4.891,0,0,1-3.52-1.244,5.2,5.2,0,0,1,0-6.9,4.746,4.746,0,0,1,3.437-1.261,4.536,4.536,0,0,1,3.243,1.151A4.517,4.517,0,0,1,22.764,55.351Zm-4.456-2.786a2,2,0,0,0-2.2,1.74h4.148a1.9,1.9,0,0,0-.624-1.292A1.978,1.978,0,0,0,18.308,52.564Zm9.563,7.611a5.049,5.049,0,0,1-2.637-.633,2.675,2.675,0,0,1-1.292-1.881l2.118-.6a1.7,1.7,0,0,0,1.811,1.345,1.87,1.87,0,0,0,.923-.207.719.719,0,0,0,.36-.7A.739.739,0,0,0,29,57.038a1.183,1.183,0,0,0-.461-.334,5.749,5.749,0,0,0-.615-.237q-.3-.1-.8-.233t-.835-.259a5.593,5.593,0,0,1-.8-.338,3.393,3.393,0,0,1-.659-.466,1.878,1.878,0,0,1-.492-.708,2.552,2.552,0,0,1-.171-.967,2.308,2.308,0,0,1,.98-2.021,4.379,4.379,0,0,1,2.562-.686,4.489,4.489,0,0,1,2.364.58,2.625,2.625,0,0,1,1.213,1.811l-1.96.439a1.535,1.535,0,0,0-1.608-1.143,1.761,1.761,0,0,0-.888.2.649.649,0,0,0-.352.6.685.685,0,0,0,.053.272.539.539,0,0,0,.185.22,2.692,2.692,0,0,0,.255.167,1.923,1.923,0,0,0,.36.145q.237.075.4.114l.461.119.47.123q.483.132.848.264a4.967,4.967,0,0,1,.778.369,2.792,2.792,0,0,1,.681.532,2.372,2.372,0,0,1,.444.747,2.759,2.759,0,0,1,.176,1.006,2.718,2.718,0,0,1-.3,1.31,2.276,2.276,0,0,1-.831.883,4.043,4.043,0,0,1-1.173.475A6.087,6.087,0,0,1,27.87,60.176Z" transform="translate(961 3286)" fill="#1e3c64"/>
    <g id="Elipse_581" data-name="Elipse 581" transform="translate(747 3242)" fill="#afdddb" stroke="#21726f" stroke-width="1">
      <circle cx="63.5" cy="63.5" r="63.5" stroke="none"/>
      <circle cx="63.5" cy="63.5" r="63" fill="none"/>
    </g>
    <path id="Trazado_18763" data-name="Trazado 18763" d="M-28.463-10.38h-4.711V-7.5H-29V-5.2h-4.175v2.874h4.711V0h-7.365V-12.7h7.365ZM-27.321,0l3.709-4.526-3.709-4.509h3.164l2.074,2.848,2.092-2.848h3.138l-3.718,4.518L-16.853,0h-3.138l-2.074-2.83L-24.148,0Zm17.156-9.211a4.394,4.394,0,0,1,1.688.325,4.223,4.223,0,0,1,1.384.914,4.135,4.135,0,0,1,.936,1.49A5.531,5.531,0,0,1-5.814-4.5a5.531,5.531,0,0,1-.343,1.982,4.135,4.135,0,0,1-.936,1.49,4.223,4.223,0,0,1-1.384.914,4.394,4.394,0,0,1-1.687.325A3.921,3.921,0,0,1-11.8-.123a2.562,2.562,0,0,1-1.134-.949V4.395h-2.531V-9.035h2.4l.07,1.213a2.475,2.475,0,0,1,1.129-1.024A3.881,3.881,0,0,1-10.165-9.211Zm-.571,7.321A2.274,2.274,0,0,0-9.026-2.6a2.628,2.628,0,0,0,.681-1.9,2.628,2.628,0,0,0-.681-1.9,2.274,2.274,0,0,0-1.709-.708,2.278,2.278,0,0,0-1.723.721,2.629,2.629,0,0,0-.686,1.89,2.629,2.629,0,0,0,.686,1.89A2.278,2.278,0,0,0-10.736-1.89ZM-1.481-7.6A2.933,2.933,0,0,1-.294-8.688a3.62,3.62,0,0,1,1.767-.453v2.259A3.423,3.423,0,0,0-.69-6.337,2.379,2.379,0,0,0-1.358-4.4V0H-3.907V-9.035h2.426ZM11.4-4.649l-.026.606H4.68A2.339,2.339,0,0,0,5.4-2.391a2.3,2.3,0,0,0,1.591.571,2.221,2.221,0,0,0,1.191-.312,1.918,1.918,0,0,0,.76-.91l2.32.343A3.945,3.945,0,0,1,9.681-.58,4.7,4.7,0,0,1,7.009.176a4.891,4.891,0,0,1-3.52-1.244,4.538,4.538,0,0,1-1.305-3.45,4.565,4.565,0,0,1,1.31-3.45A4.746,4.746,0,0,1,6.93-9.229a4.536,4.536,0,0,1,3.243,1.151A4.517,4.517,0,0,1,11.4-4.649ZM6.948-7.436A2,2,0,0,0,4.75-5.7H8.9a1.9,1.9,0,0,0-.624-1.292A1.978,1.978,0,0,0,6.948-7.436ZM16.51.176a5.049,5.049,0,0,1-2.637-.633,2.675,2.675,0,0,1-1.292-1.881l2.118-.6A1.7,1.7,0,0,0,16.51-1.591a1.87,1.87,0,0,0,.923-.207.719.719,0,0,0,.36-.7.739.739,0,0,0-.149-.466,1.183,1.183,0,0,0-.461-.334,5.749,5.749,0,0,0-.615-.237q-.3-.1-.8-.233t-.835-.259a5.593,5.593,0,0,1-.8-.338,3.393,3.393,0,0,1-.659-.466,1.878,1.878,0,0,1-.492-.708A2.552,2.552,0,0,1,12.81-6.5a2.308,2.308,0,0,1,.98-2.021,4.379,4.379,0,0,1,2.562-.686,4.489,4.489,0,0,1,2.364.58A2.625,2.625,0,0,1,19.929-6.82l-1.96.439a1.535,1.535,0,0,0-1.608-1.143,1.761,1.761,0,0,0-.888.2.649.649,0,0,0-.352.6.685.685,0,0,0,.053.272.539.539,0,0,0,.185.22,2.692,2.692,0,0,0,.255.167,1.923,1.923,0,0,0,.36.145q.237.075.4.114l.461.119.47.123q.483.132.848.264a4.967,4.967,0,0,1,.778.369,2.792,2.792,0,0,1,.681.532,2.372,2.372,0,0,1,.444.747,2.759,2.759,0,0,1,.176,1.006,2.718,2.718,0,0,1-.3,1.31,2.276,2.276,0,0,1-.831.883,4.043,4.043,0,0,1-1.173.475A6.087,6.087,0,0,1,16.51.176ZM29.457-2.452a8.453,8.453,0,0,0,.22,2.206V0H27.312l-.2-.984a2.938,2.938,0,0,1-1.266.87,4.664,4.664,0,0,1-1.635.29A4.3,4.3,0,0,1,23.366.1a2.868,2.868,0,0,1-.76-.268,2.307,2.307,0,0,1-.628-.47,2.062,2.062,0,0,1-.422-.716,2.853,2.853,0,0,1-.158-.98,2.718,2.718,0,0,1,.167-.98A2.3,2.3,0,0,1,22-4.052a2.666,2.666,0,0,1,.712-.536,5.447,5.447,0,0,1,.9-.387,10.712,10.712,0,0,1,1.072-.281l1.485-.334a1.638,1.638,0,0,0,.672-.286.57.57,0,0,0,.2-.453A.932.932,0,0,0,26.6-7.2a2.072,2.072,0,0,0-1.077-.264,1.549,1.549,0,0,0-1.767,1.38l-2.241-.4a3.034,3.034,0,0,1,1.31-2.061,5.2,5.2,0,0,1,2.839-.664q3.8,0,3.8,3.261ZM25-1.538a2.036,2.036,0,0,0,1.564-.655,2.759,2.759,0,0,0,.606-1.938l-2.145.606a2.534,2.534,0,0,0-.9.369.758.758,0,0,0-.312.65.842.842,0,0,0,.334.716A1.382,1.382,0,0,0,25-1.538ZM34.343-7.6A2.933,2.933,0,0,1,35.53-8.688,3.62,3.62,0,0,1,37.3-9.141v2.259a3.423,3.423,0,0,0-2.162.545A2.379,2.379,0,0,0,34.466-4.4V0H31.917V-9.035h2.426Z" transform="translate(811 3312)" fill="#1e3c64"/>
    <g id="Elipse_582" data-name="Elipse 582" transform="translate(1048 3242)" fill="#fae8bc" stroke="#fa803f" stroke-width="1">
      <circle cx="63.5" cy="63.5" r="63.5" stroke="none"/>
      <circle cx="63.5" cy="63.5" r="63" fill="none"/>
    </g>
    <path id="Trazado_18761" data-name="Trazado 18761" d="M-28.354,0l-3.3-5.59h-.765V0H-35.06V-12.7h4.605a5.327,5.327,0,0,1,1.846.294,3.191,3.191,0,0,1,1.279.817,3.5,3.5,0,0,1,.721,1.2A4.388,4.388,0,0,1-26.367-8.9a3.1,3.1,0,0,1-.694,2.087,3.5,3.5,0,0,1-2,1.094L-25.233,0Zm-4.069-10.512v3.032h1.556q1.978,0,1.978-1.512a1.377,1.377,0,0,0-.483-1.116,2.3,2.3,0,0,0-1.494-.4Zm16.752,5.862-.026.606h-6.7a2.339,2.339,0,0,0,.721,1.652,2.3,2.3,0,0,0,1.591.571,2.221,2.221,0,0,0,1.191-.312,1.918,1.918,0,0,0,.76-.91l2.32.343A3.945,3.945,0,0,1-17.394-.58a4.7,4.7,0,0,1-2.672.756,4.891,4.891,0,0,1-3.52-1.244,4.538,4.538,0,0,1-1.305-3.45,4.565,4.565,0,0,1,1.31-3.45,4.746,4.746,0,0,1,3.437-1.261A4.536,4.536,0,0,1-16.9-8.077,4.517,4.517,0,0,1-15.671-4.649Zm-4.456-2.786a2,2,0,0,0-2.2,1.74h4.148A1.9,1.9,0,0,0-18.8-6.987,1.978,1.978,0,0,0-20.127-7.436ZM-10.564.176A5.049,5.049,0,0,1-13.2-.457a2.675,2.675,0,0,1-1.292-1.881l2.118-.6a1.7,1.7,0,0,0,1.811,1.345A1.87,1.87,0,0,0-9.642-1.8a.719.719,0,0,0,.36-.7.739.739,0,0,0-.149-.466A1.183,1.183,0,0,0-9.892-3.3a5.749,5.749,0,0,0-.615-.237q-.3-.1-.8-.233t-.835-.259a5.593,5.593,0,0,1-.8-.338A3.393,3.393,0,0,1-13.6-4.83a1.878,1.878,0,0,1-.492-.708,2.552,2.552,0,0,1-.171-.967,2.308,2.308,0,0,1,.98-2.021,4.379,4.379,0,0,1,2.562-.686,4.489,4.489,0,0,1,2.364.58A2.625,2.625,0,0,1-7.146-6.82l-1.96.439a1.535,1.535,0,0,0-1.608-1.143,1.761,1.761,0,0,0-.888.2.649.649,0,0,0-.352.6.685.685,0,0,0,.053.272.539.539,0,0,0,.185.22,2.692,2.692,0,0,0,.255.167,1.923,1.923,0,0,0,.36.145q.237.075.4.114l.461.119.47.123q.483.132.848.264a4.967,4.967,0,0,1,.778.369,2.792,2.792,0,0,1,.681.532,2.372,2.372,0,0,1,.444.747,2.759,2.759,0,0,1,.176,1.006,2.718,2.718,0,0,1-.3,1.31,2.276,2.276,0,0,1-.831.883A4.043,4.043,0,0,1-9.154.022,6.087,6.087,0,0,1-10.564.176Zm9.747,0A5.681,5.681,0,0,1-3.375-.378,4.138,4.138,0,0,1-5.128-2a4.846,4.846,0,0,1-.637-2.522A4.42,4.42,0,0,1-4.395-7.954,5.086,5.086,0,0,1-.817-9.211,5.1,5.1,0,0,1,2.769-7.954,4.42,4.42,0,0,1,4.14-4.526,4.444,4.444,0,0,1,2.769-1.085,5.088,5.088,0,0,1-.817.176ZM-.844-1.837A2.319,2.319,0,0,0,.945-2.575a2.764,2.764,0,0,0,.681-1.951A2.764,2.764,0,0,0,.945-6.478,2.319,2.319,0,0,0-.844-7.216a2.234,2.234,0,0,0-1.736.743,2.789,2.789,0,0,0-.672,1.947A2.789,2.789,0,0,0-2.58-2.58,2.234,2.234,0,0,0-.844-1.837ZM6.021,0V-13.5H8.578V0ZM17.077-9.035h2.681L15.908,0h-2.2L9.905-9.035h2.663l2.25,6.179ZM29.224-4.649l-.026.606H22.5a2.339,2.339,0,0,0,.721,1.652,2.3,2.3,0,0,0,1.591.571A2.221,2.221,0,0,0,26-2.131a1.918,1.918,0,0,0,.76-.91l2.32.343A3.945,3.945,0,0,1,27.5-.58a4.7,4.7,0,0,1-2.672.756,4.891,4.891,0,0,1-3.52-1.244A4.538,4.538,0,0,1,20-4.518a4.565,4.565,0,0,1,1.31-3.45A4.746,4.746,0,0,1,24.75-9.229a4.536,4.536,0,0,1,3.243,1.151A4.517,4.517,0,0,1,29.224-4.649ZM24.768-7.436a2,2,0,0,0-2.2,1.74h4.148a1.9,1.9,0,0,0-.624-1.292A1.978,1.978,0,0,0,24.768-7.436ZM33.574-7.6a2.933,2.933,0,0,1,1.187-1.085,3.62,3.62,0,0,1,1.767-.453v2.259a3.423,3.423,0,0,0-2.162.545A2.379,2.379,0,0,0,33.7-4.4V0H31.148V-9.035h2.426Z" transform="translate(1115 3312)" fill="#1e3c64"/>
    <g id="Elipse_583" data-name="Elipse 583" transform="translate(897 3095)" fill="#bcfad9" stroke="#4d8364" stroke-width="1">
      <circle cx="63.5" cy="63.5" r="63.5" stroke="none"/>
      <circle cx="63.5" cy="63.5" r="63" fill="none"/>
    </g>
    <path id="Trazado_18764" data-name="Trazado 18764" d="M-30.221-10.38h-4.711V-7.5h4.175V-5.2h-4.175v2.874h4.711V0h-7.365V-12.7h7.365ZM-24.658.176a5.049,5.049,0,0,1-2.637-.633,2.675,2.675,0,0,1-1.292-1.881l2.118-.6a1.7,1.7,0,0,0,1.811,1.345,1.87,1.87,0,0,0,.923-.207.719.719,0,0,0,.36-.7.739.739,0,0,0-.149-.466,1.183,1.183,0,0,0-.461-.334,5.749,5.749,0,0,0-.615-.237q-.3-.1-.8-.233t-.835-.259a5.593,5.593,0,0,1-.8-.338,3.393,3.393,0,0,1-.659-.466,1.878,1.878,0,0,1-.492-.708,2.552,2.552,0,0,1-.171-.967,2.308,2.308,0,0,1,.98-2.021,4.379,4.379,0,0,1,2.562-.686,4.489,4.489,0,0,1,2.364.58A2.625,2.625,0,0,1-21.239-6.82l-1.96.439a1.535,1.535,0,0,0-1.608-1.143,1.761,1.761,0,0,0-.888.2.649.649,0,0,0-.352.6.685.685,0,0,0,.053.272.539.539,0,0,0,.185.22,2.692,2.692,0,0,0,.255.167,1.923,1.923,0,0,0,.36.145q.237.075.4.114l.461.119.47.123q.483.132.848.264a4.967,4.967,0,0,1,.778.369,2.792,2.792,0,0,1,.681.532,2.372,2.372,0,0,1,.444.747,2.759,2.759,0,0,1,.176,1.006,2.718,2.718,0,0,1-.3,1.31,2.276,2.276,0,0,1-.831.883,4.043,4.043,0,0,1-1.173.475A6.087,6.087,0,0,1-24.658.176Zm9.624-.009a4.827,4.827,0,0,1-3.489-1.3,4.493,4.493,0,0,1-1.354-3.393,4.483,4.483,0,0,1,1.349-3.393,4.842,4.842,0,0,1,3.494-1.292,4.814,4.814,0,0,1,2.927.87A3.885,3.885,0,0,1-10.6-5.889l-2.338.255a2,2,0,0,0-.756-1.187,2.3,2.3,0,0,0-1.371-.4,2.072,2.072,0,0,0-1.652.738,2.894,2.894,0,0,0-.633,1.951,2.9,2.9,0,0,0,.633,1.947,2.067,2.067,0,0,0,1.652.743,2.278,2.278,0,0,0,1.367-.4,2.05,2.05,0,0,0,.76-1.187l2.338.255A3.9,3.9,0,0,1-12.12-.712,4.8,4.8,0,0,1-15.034.167Zm12.226-9.2H-.277V0h-2.4l-.062-1.09A3.45,3.45,0,0,1-5.612.176a3.522,3.522,0,0,1-2.5-.813,3.014,3.014,0,0,1-.87-2.316V-9.035h2.54V-3.5a1.562,1.562,0,0,0,.453,1.239,1.718,1.718,0,0,0,1.173.4,2.038,2.038,0,0,0,1.437-.514,2.209,2.209,0,0,0,.567-1.674ZM6.429.167a4.827,4.827,0,0,1-3.489-1.3A4.493,4.493,0,0,1,1.586-4.526,4.483,4.483,0,0,1,2.936-7.919,4.842,4.842,0,0,1,6.429-9.211a4.814,4.814,0,0,1,2.927.87,3.885,3.885,0,0,1,1.512,2.452L8.53-5.634A2,2,0,0,0,7.774-6.82a2.3,2.3,0,0,0-1.371-.4,2.072,2.072,0,0,0-1.652.738,2.894,2.894,0,0,0-.633,1.951A2.9,2.9,0,0,0,4.75-2.58,2.067,2.067,0,0,0,6.4-1.837a2.278,2.278,0,0,0,1.367-.4,2.05,2.05,0,0,0,.76-1.187l2.338.255A3.9,3.9,0,0,1,9.343-.712,4.8,4.8,0,0,1,6.429.167ZM18.136-9.211a3.207,3.207,0,0,1,2.386.857,3.448,3.448,0,0,1,.848,2.527V0h-2.54V-5.414a1.77,1.77,0,0,0-.448-1.349,1.684,1.684,0,0,0-1.2-.417,2.309,2.309,0,0,0-.708.105,2.024,2.024,0,0,0-.628.338,1.53,1.53,0,0,0-.47.681,3.129,3.129,0,0,0-.18,1.072V0H12.669V-13.5H15.2v5.546A3.576,3.576,0,0,1,18.136-9.211ZM31.214-2.452a8.453,8.453,0,0,0,.22,2.206V0H29.07l-.2-.984a2.938,2.938,0,0,1-1.266.87,4.664,4.664,0,0,1-1.635.29A4.3,4.3,0,0,1,25.124.1a2.868,2.868,0,0,1-.76-.268,2.307,2.307,0,0,1-.628-.47,2.062,2.062,0,0,1-.422-.716,2.853,2.853,0,0,1-.158-.98,2.718,2.718,0,0,1,.167-.98,2.3,2.3,0,0,1,.439-.734,2.666,2.666,0,0,1,.712-.536,5.447,5.447,0,0,1,.9-.387,10.712,10.712,0,0,1,1.072-.281l1.485-.334a1.638,1.638,0,0,0,.672-.286.57.57,0,0,0,.2-.453.932.932,0,0,0-.444-.87,2.072,2.072,0,0,0-1.077-.264,1.549,1.549,0,0,0-1.767,1.38l-2.241-.4a3.034,3.034,0,0,1,1.31-2.061,5.2,5.2,0,0,1,2.839-.664q3.8,0,3.8,3.261Zm-4.456.914a2.036,2.036,0,0,0,1.564-.655,2.759,2.759,0,0,0,.606-1.938l-2.145.606a2.534,2.534,0,0,0-.9.369.758.758,0,0,0-.312.65.842.842,0,0,0,.334.716A1.382,1.382,0,0,0,26.758-1.538ZM36.1-7.6a2.933,2.933,0,0,1,1.187-1.085,3.62,3.62,0,0,1,1.767-.453v2.259a3.423,3.423,0,0,0-2.162.545A2.379,2.379,0,0,0,36.224-4.4V0H33.675V-9.035H36.1Z" transform="translate(963 3165)" fill="#1e3c64"/>
  </g>
</svg>
